<svg width="29" height="19" viewBox="0 0 29 19" fill="none" xmlns="http://www.w3.org/2000/svg">
<path d="M0 17.4167C0 18.2911 0.708882 19 1.58333 19H27.4167C28.2911 19 29 18.2911 29 17.4167C29 16.5422 28.2911 15.8333 27.4167 15.8333H1.58333C0.708882 15.8333 0 16.5422 0 17.4167ZM0 9.5C0 10.3745 0.708882 11.0833 1.58333 11.0833H27.4167C28.2911 11.0833 29 10.3745 29 9.5C29 8.62555 28.2911 7.91667 27.4167 7.91667H1.58333C0.708882 7.91667 0 8.62555 0 9.5ZM1.58333 0C0.708882 0 0 0.708883 0 1.58333C0 2.45778 0.708882 3.16667 1.58333 3.16667H27.4167C28.2911 3.16667 29 2.45778 29 1.58333C29 0.708883 28.2911 0 27.4167 0H1.58333Z" fill="#2B2D42"/>
</svg>
